{"canvas_config":{"height":1920,"ratio":"original","width":1280},"color_space":0,"config":{"adjust_max_index":1,"attachment_info":[],"combination_max_index":1,"export_range":null,"extract_audio_last_index":1,"lyrics_recognition_id":"","lyrics_sync":true,"lyrics_taskinfo":[],"maintrack_adsorb":true,"material_save_mode":1,"multi_language_current":"none","multi_language_list":[],"multi_language_main":"none","multi_language_mode":"none","original_sound_last_index":1,"record_audio_last_index":1,"sticker_max_index":1,"subtitle_keywords_config":null,"subtitle_recognition_id":"","subtitle_sync":true,"subtitle_taskinfo":[],"system_font_list":[],"video_mute":false,"zoom_info_params":{"offset_x":0.0,"offset_y":0.0,"zoom_ratio":0.9999000000000005}},"cover":null,"create_time":0,"duration":70433333,"extra_info":null,"fps":30.0,"free_render_index_mode_on":false,"group_container":null,"id":"863E7B58-917C-4a3a-A9DC-5AD9F8C75572","keyframe_graph_list":[],"keyframes":{"adjusts":[],"audios":[],"effects":[],"filters":[],"handwrites":[],"stickers":[],"texts":[],"videos":[]},"last_modified_platform":{"app_id":359289,"app_source":"cc","app_version":"3.9.0","device_id":"b000ef05ad8a2c8de98905bbc4a2a13d","hard_disk_id":"98697f5b2672733057711c84e4b517c3","mac_address":"3ab780bc59d11a00e1ba676c31de1115,09861091e4eef2367b35d8703476edfc","os":"windows","os_version":"10.0.26100"},"materials":{"ai_translates":[],"audio_balances":[],"audio_effects":[],"audio_fades":[],"audio_track_indexes":[],"audios":[],"beats":[],"canvases":[{"album_image":"","blur":0.0,"color":"","id":"95244F6C-FF0C-4173-9830-9743A4FFDF50","image":"","image_id":"","image_name":"","source_platform":0,"team_id":"","type":"canvas_color"},{"album_image":"","blur":0.0,"color":"","id":"E34201EA-E2EA-47da-B732-377937B34B8D","image":"","image_id":"","image_name":"","source_platform":0,"team_id":"","type":"canvas_color"},{"album_image":"","blur":0.0,"color":"","id":"6E567A6D-A159-4eab-8496-089B9B431B5B","image":"","image_id":"","image_name":"","source_platform":0,"team_id":"","type":"canvas_color"},{"album_image":"","blur":0.0,"color":"","id":"09612D6D-168B-43ac-9D5A-279BDF4BB718","image":"","image_id":"","image_name":"","source_platform":0,"team_id":"","type":"canvas_color"},{"album_image":"","blur":0.0,"color":"","id":"88F6700A-46BB-4656-9086-B82D7A458309","image":"","image_id":"","image_name":"","source_platform":0,"team_id":"","type":"canvas_color"},{"album_image":"","blur":0.0,"color":"","id":"14AD72C5-8190-4d5a-BFEF-2AE078FF90DC","image":"","image_id":"","image_name":"","source_platform":0,"team_id":"","type":"canvas_color"},{"album_image":"","blur":0.0,"color":"","id":"B7CCE3DD-478E-4324-B47B-5E6E6E3D1869","image":"","image_id":"","image_name":"","source_platform":0,"team_id":"","type":"canvas_color"},{"album_image":"","blur":0.0,"color":"","id":"FEA31145-2DB6-44c3-B351-80E68B4D9A62","image":"","image_id":"","image_name":"","source_platform":0,"team_id":"","type":"canvas_color"},{"album_image":"","blur":0.0,"color":"","id":"D9DCBAB2-6002-41ef-83D6-3DD46D40253B","image":"","image_id":"","image_name":"","source_platform":0,"team_id":"","type":"canvas_color"},{"album_image":"","blur":0.0,"color":"","id":"9F8700B9-23F9-4834-9DD1-C413A2ECFBC2","image":"","image_id":"","image_name":"","source_platform":0,"team_id":"","type":"canvas_color"},{"album_image":"","blur":0.0,"color":"","id":"1DFE276A-B1BB-4a19-BB70-A3DA16A4ABA6","image":"","image_id":"","image_name":"","source_platform":0,"team_id":"","type":"canvas_color"},{"album_image":"","blur":0.0,"color":"","id":"0118528C-5C1A-44f0-807C-00BE399C14F3","image":"","image_id":"","image_name":"","source_platform":0,"team_id":"","type":"canvas_color"},{"album_image":"","blur":0.0,"color":"","id":"5E1FD27E-2B24-4488-A720-1DC095003A17","image":"","image_id":"","image_name":"","source_platform":0,"team_id":"","type":"canvas_color"},{"album_image":"","blur":0.0,"color":"","id":"16CB2482-ED1D-4d41-80EF-10B420479B9E","image":"","image_id":"","image_name":"","source_platform":0,"team_id":"","type":"canvas_color"},{"album_image":"","blur":0.0,"color":"","id":"C298EF1E-DE92-42e4-96AE-59FEC433AB0B","image":"","image_id":"","image_name":"","source_platform":0,"team_id":"","type":"canvas_color"}],"chromas":[],"color_curves":[],"digital_humans":[],"drafts":[],"effects":[],"flowers":[],"green_screens":[],"handwrites":[],"hsl":[],"images":[],"log_color_wheels":[],"loudnesses":[],"manual_deformations":[],"masks":[],"material_animations":[{"animations":[],"id":"5B79F203-D810-43cf-B65C-7655730E90FB","multi_language_current":"none","type":"sticker_animation"},{"animations":[],"id":"56D050DA-1A47-45ba-AABF-C6DFECC7557C","multi_language_current":"none","type":"sticker_animation"},{"animations":[],"id":"C79C55EB-0361-4a09-A733-4D9D091630D4","multi_language_current":"none","type":"sticker_animation"},{"animations":[],"id":"B04794F6-BA49-4cee-AFB7-F95BF48B0C9F","multi_language_current":"none","type":"sticker_animation"},{"animations":[],"id":"3CCA5F34-CA39-43dc-8FC5-CA40E55AE1E5","multi_language_current":"none","type":"sticker_animation"},{"animations":[],"id":"2D3C4B2E-9818-4e6c-BB33-0C7B1A8FD784","multi_language_current":"none","type":"sticker_animation"},{"animations":[],"id":"7441708A-5EF8-49cc-9876-89662E5263F8","multi_language_current":"none","type":"sticker_animation"},{"animations":[],"id":"7490C7E3-2814-48db-AD16-DF2AAC3D3C6D","multi_language_current":"none","type":"sticker_animation"},{"animations":[],"id":"E9C13BC0-16B2-457d-B961-201111BD1A41","multi_language_current":"none","type":"sticker_animation"},{"animations":[],"id":"F425798E-735A-42c0-BF15-E07D4F544CCA","multi_language_current":"none","type":"sticker_animation"},{"animations":[],"id":"8166B5CE-8CA4-4368-94EC-ACEB00DD5AF8","multi_language_current":"none","type":"sticker_animation"},{"animations":[],"id":"BA1EEFD9-20C2-4692-B7E0-FB3A6A05554D","multi_language_current":"none","type":"sticker_animation"},{"animations":[],"id":"4C92B5D0-7E15-40d1-B041-04D53D873EF7","multi_language_current":"none","type":"sticker_animation"},{"animations":[],"id":"A3208C3A-526D-4fc9-9B4F-2929F0050A7F","multi_language_current":"none","type":"sticker_animation"}],"material_colors":[],"multi_language_refs":[],"placeholders":[],"plugin_effects":[],"primary_color_wheels":[],"realtime_denoises":[],"shapes":[],"smart_crops":[],"smart_relights":[],"sound_channel_mappings":[{"audio_channel_mapping":0,"id":"ABAADB20-99EA-458c-92A1-11E3F1697023","is_config_open":false,"type":""},{"audio_channel_mapping":0,"id":"F9D2B12C-6DED-4d66-A73E-2FEE0D207170","is_config_open":false,"type":""},{"audio_channel_mapping":0,"id":"AD18898F-B32A-4d37-86E8-3E8F9904D45C","is_config_open":false,"type":""},{"audio_channel_mapping":0,"id":"B87F4660-86FF-4c13-A575-0D1EDCC0FA20","is_config_open":false,"type":""},{"audio_channel_mapping":0,"id":"DC22CC6C-1664-4b56-9E56-8541071BE8A5","is_config_open":false,"type":""},{"audio_channel_mapping":0,"id":"D90F0FCF-C19E-4453-BC2F-D419582B89AE","is_config_open":false,"type":""},{"audio_channel_mapping":0,"id":"46D94615-341E-4853-B4A1-375E19B5F7CC","is_config_open":false,"type":""},{"audio_channel_mapping":0,"id":"37492709-884A-4254-9A9C-6B5E450DFFFB","is_config_open":false,"type":""},{"audio_channel_mapping":0,"id":"6DC61AE2-3715-4005-9507-CCE0E24BABE0","is_config_open":false,"type":""},{"audio_channel_mapping":0,"id":"906C1E10-88E9-4da7-AFF9-8320DFF92622","is_config_open":false,"type":""},{"audio_channel_mapping":0,"id":"6A51056B-0AF4-48d6-B4AB-4615B8E5A2F2","is_config_open":false,"type":""},{"audio_channel_mapping":0,"id":"F1AE73ED-222F-450b-86D7-F3DA156DCB24","is_config_open":false,"type":""},{"audio_channel_mapping":0,"id":"76841F62-A6DB-4d89-9605-F1F19B4F388E","is_config_open":false,"type":""},{"audio_channel_mapping":0,"id":"C0247E02-FB43-4582-94E9-4E4BE3A867D2","is_config_open":false,"type":""},{"audio_channel_mapping":0,"id":"A49D2033-B967-43e7-9DB7-A5F25928E0BD","is_config_open":false,"type":""}],"speeds":[{"curve_speed":null,"id":"913A7135-9B04-4295-B78F-A0909E50F1CF","mode":0,"speed":1.0,"type":"speed"},{"curve_speed":null,"id":"4A026B8F-8C72-417a-9C85-07BF66B3A308","mode":0,"speed":1.0,"type":"speed"},{"curve_speed":null,"id":"C362D176-9CA5-4bd8-A203-0BD62BCD1B44","mode":0,"speed":1.0,"type":"speed"},{"curve_speed":null,"id":"19BA1957-78B0-48bf-80E5-E3AB74C3E1F5","mode":0,"speed":1.0,"type":"speed"},{"curve_speed":null,"id":"0ADEF183-2437-424c-8999-4AD4C5BD76B9","mode":0,"speed":1.0,"type":"speed"},{"curve_speed":null,"id":"B31A4BBB-3884-4cb7-80EE-39917C64914E","mode":0,"speed":1.0,"type":"speed"},{"curve_speed":null,"id":"7083D9C4-EFAF-4e62-8E7D-DA06F0A9E42C","mode":0,"speed":1.0,"type":"speed"},{"curve_speed":null,"id":"A03934C6-9786-4b2c-B920-3E564B66AC37","mode":0,"speed":1.0,"type":"speed"},{"curve_speed":null,"id":"5F6495CC-4327-4136-90C6-B02161F8D062","mode":0,"speed":1.0,"type":"speed"},{"curve_speed":null,"id":"2607EA7F-D8FC-4061-BD6B-55319659D537","mode":0,"speed":1.0,"type":"speed"},{"curve_speed":null,"id":"8C1BB76C-03FD-4460-889C-B68CFCF09302","mode":0,"speed":1.0,"type":"speed"},{"curve_speed":null,"id":"7C18DF2B-6B78-4063-8469-41481CA6BA44","mode":0,"speed":1.0,"type":"speed"},{"curve_speed":null,"id":"851D338A-5B13-4079-BD60-DCA27DDB3B8D","mode":0,"speed":1.0,"type":"speed"},{"curve_speed":null,"id":"7996F0A8-9945-4643-9976-AB6201B10680","mode":0,"speed":1.0,"type":"speed"},{"curve_speed":null,"id":"FA8D82B0-0E12-4013-8652-78F1385C80B0","mode":0,"speed":1.0,"type":"speed"}],"stickers":[],"tail_leaders":[],"text_templates":[],"texts":[],"time_marks":[],"transitions":[{"category_id":"123456","category_name":"heycan_search_transition","duration":1133333,"effect_id":"3202394","id":"9708E91E-567D-4d7f-BC34-148BCE32A52C","is_overlap":true,"name":"Mix","path":"C:/Users/Computer/AppData/Local/CapCut/User Data/Cache/effect/3202394/6f18fb242b64f9641da79aa773a33687","platform":"all","request_id":"20250920184613010191117011408ADFD","resource_id":"6943605272933831169","type":"transition"},{"category_id":"123456","category_name":"Transitions","duration":466666,"effect_id":"3202394","id":"5C87210D-F407-488a-9963-36339CF0BDEA","is_overlap":true,"name":"Mix","path":"C:/Users/Computer/AppData/Local/CapCut/User Data/Cache/effect/3202394/6f18fb242b64f9641da79aa773a33687","platform":"all","request_id":"20250920184613010191117011408ADFD","resource_id":"6943605272933831169","type":"transition"},{"category_id":"123456","category_name":"Transitions","duration":466666,"effect_id":"3202394","id":"B32E50E9-8CDD-4916-AE43-09EAE8D3F804","is_overlap":true,"name":"Mix","path":"C:/Users/Computer/AppData/Local/CapCut/User Data/Cache/effect/3202394/6f18fb242b64f9641da79aa773a33687","platform":"all","request_id":"20250920184613010191117011408ADFD","resource_id":"6943605272933831169","type":"transition"},{"category_id":"123456","category_name":"Transitions","duration":466666,"effect_id":"3202394","id":"35389B13-ADD3-46d7-8326-204209086974","is_overlap":true,"name":"Mix","path":"C:/Users/Computer/AppData/Local/CapCut/User Data/Cache/effect/3202394/6f18fb242b64f9641da79aa773a33687","platform":"all","request_id":"20250920184613010191117011408ADFD","resource_id":"6943605272933831169","type":"transition"},{"category_id":"123456","category_name":"Transitions","duration":466666,"effect_id":"9291371","id":"95DBCD74-678E-491c-8AAD-867F0F30ED13","is_overlap":true,"name":"Distortion","path":"C:/Users/Computer/AppData/Local/CapCut/User Data/Cache/effect/9291371/f864724f43f1d853c15e1d4a1d11117d","platform":"all","request_id":"2025092102455762D81F64BE20A556B75F","resource_id":"7169838836304843265","type":"transition"},{"category_id":"123456","category_name":"Transitions","duration":1466666,"effect_id":"3202394","id":"B4DA4B50-7C72-447e-92EB-307E38760C55","is_overlap":true,"name":"Mix","path":"C:/Users/Computer/AppData/Local/CapCut/User Data/Cache/effect/3202394/6f18fb242b64f9641da79aa773a33687","platform":"all","request_id":"20250920184613010191117011408ADFD","resource_id":"6943605272933831169","type":"transition"},{"category_id":"123456","category_name":"Transitions","duration":1066666,"effect_id":"3202394","id":"0AC5A7C9-AD91-40e2-8D83-7868F694FECE","is_overlap":true,"name":"Mix","path":"C:/Users/Computer/AppData/Local/CapCut/User Data/Cache/effect/3202394/6f18fb242b64f9641da79aa773a33687","platform":"all","request_id":"20250920184613010191117011408ADFD","resource_id":"6943605272933831169","type":"transition"},{"category_id":"123456","category_name":"Transitions","duration":933333,"effect_id":"3202394","id":"D5D9AD6F-B368-4089-BE61-AF5DF9D0FFF1","is_overlap":true,"name":"Mix","path":"C:/Users/Computer/AppData/Local/CapCut/User Data/Cache/effect/3202394/6f18fb242b64f9641da79aa773a33687","platform":"all","request_id":"20250920184613010191117011408ADFD","resource_id":"6943605272933831169","type":"transition"},{"category_id":"123456","category_name":"Transitions","duration":1400000,"effect_id":"3202394","id":"FB1AAC4D-B574-4002-B3A4-B48B35BE64A8","is_overlap":true,"name":"Mix","path":"C:/Users/Computer/AppData/Local/CapCut/User Data/Cache/effect/3202394/6f18fb242b64f9641da79aa773a33687","platform":"all","request_id":"20250920184613010191117011408ADFD","resource_id":"6943605272933831169","type":"transition"},{"category_id":"123456","category_name":"Transitions","duration":800000,"effect_id":"3202394","id":"BB17175E-7601-4ecf-8D05-2380C2F2A4D5","is_overlap":true,"name":"Mix","path":"C:/Users/Computer/AppData/Local/CapCut/User Data/Cache/effect/3202394/6f18fb242b64f9641da79aa773a33687","platform":"all","request_id":"20250920184613010191117011408ADFD","resource_id":"6943605272933831169","type":"transition"}],"video_effects":[],"video_trackings":[],"videos":[{"aigc_type":"none","audio_fade":null,"cartoon_path":"","category_id":"","category_name":"local","check_flag":63487,"crop":{"lower_left_x":0.0,"lower_left_y":1.0,"lower_right_x":1.0,"lower_right_y":1.0,"upper_left_x":0.0,"upper_left_y":0.0,"upper_right_x":1.0,"upper_right_y":0.0},"crop_ratio":"free","crop_scale":1.0,"duration":5000000,"extra_type_option":0,"formula_id":"","freeze":null,"has_audio":false,"height":1080,"id":"B5FB78E0-1609-4107-96C1-D6B40D90C0FC","intensifies_audio_path":"","intensifies_path":"","is_ai_generate_content":false,"is_copyright":false,"is_text_edit_overdub":false,"is_unified_beauty_mode":false,"local_id":"","local_material_id":"2fdeff49-be6f-4037-9066-b8720440af01","material_id":"","material_name":"01_20250920_1135_Reflective Space Moment_remix_01k5kw83hcf5st12dy6wrz3vvm.mp4","material_url":"","matting":{"flag":0,"has_use_quick_brush":false,"has_use_quick_eraser":false,"interactiveTime":[],"path":"","strokes":[]},"media_path":"","object_locked":null,"origin_material_id":"","path":"##_draftpath_placeholder_0E685133-18CE-45ED-8CB8-2904A212EC80_##/Resources/local/77c0417e344fd0875a89abbeb945f221.mp4","picture_from":"none","picture_set_category_id":"","picture_set_category_name":"","request_id":"","reverse_intensifies_path":"","reverse_path":"","smart_motion":null,"source":0,"source_platform":0,"stable":{"matrix_path":"","stable_level":0,"time_range":{"duration":0,"start":0}},"team_id":"","type":"video","video_algorithm":{"algorithms":[],"complement_frame_config":null,"deflicker":null,"gameplay_configs":[],"motion_blur_config":null,"noise_reduction":null,"path":"","quality_enhance":null,"time_range":null},"width":720},{"aigc_type":"none","audio_fade":null,"cartoon_path":"","category_id":"","category_name":"local","check_flag":63487,"crop":{"lower_left_x":0.0,"lower_left_y":1.0,"lower_right_x":1.0,"lower_right_y":1.0,"upper_left_x":0.0,"upper_left_y":0.0,"upper_right_x":1.0,"upper_right_y":0.0},"crop_ratio":"free","crop_scale":1.0,"duration":5000000,"extra_type_option":0,"formula_id":"","freeze":null,"has_audio":false,"height":1080,"id":"723824E1-D3D3-41fc-959F-DA4FE25B45C8","intensifies_audio_path":"","intensifies_path":"","is_ai_generate_content":false,"is_copyright":false,"is_text_edit_overdub":false,"is_unified_beauty_mode":false,"local_id":"","local_material_id":"c17ac069-e2cd-4ecd-ba87-873bce2b199c","material_id":"","material_name":"02_20250920_1138_No Content Provided_storyboard_01k5kwd9qmfsb9xzppayrz5xyv.mp4","material_url":"","matting":{"flag":0,"has_use_quick_brush":false,"has_use_quick_eraser":false,"interactiveTime":[],"path":"","strokes":[]},"media_path":"","object_locked":null,"origin_material_id":"","path":"##_draftpath_placeholder_0E685133-18CE-45ED-8CB8-2904A212EC80_##/Resources/local/a4f61305347069e584e49fb51bebda39.mp4","picture_from":"none","picture_set_category_id":"","picture_set_category_name":"","request_id":"","reverse_intensifies_path":"","reverse_path":"","smart_motion":null,"source":0,"source_platform":0,"stable":{"matrix_path":"","stable_level":0,"time_range":{"duration":0,"start":0}},"team_id":"","type":"video","video_algorithm":{"algorithms":[],"complement_frame_config":null,"deflicker":null,"gameplay_configs":[],"motion_blur_config":null,"noise_reduction":null,"path":"","quality_enhance":null,"time_range":null},"width":720},{"aigc_type":"none","audio_fade":null,"cartoon_path":"","category_id":"","category_name":"local","check_flag":63487,"crop":{"lower_left_x":0.0,"lower_left_y":1.0,"lower_right_x":1.0,"lower_right_y":1.0,"upper_left_x":0.0,"upper_left_y":0.0,"upper_right_x":1.0,"upper_right_y":0.0},"crop_ratio":"free","crop_scale":1.0,"duration":5000000,"extra_type_option":0,"formula_id":"","freeze":null,"has_audio":false,"height":1080,"id":"0AABA6B3-196C-4e32-8AE1-6DF42064A6CC","intensifies_audio_path":"","intensifies_path":"","is_ai_generate_content":false,"is_copyright":false,"is_text_edit_overdub":false,"is_unified_beauty_mode":false,"local_id":"","local_material_id":"dbeab99b-cf07-4067-ad7f-9b8209cf7e1d","material_id":"","material_name":"03_20250920_1140_No Prompt Provided_storyboard_01k5kwgbvrf68a8cmehrf191a0.mp4","material_url":"","matting":{"flag":0,"has_use_quick_brush":false,"has_use_quick_eraser":false,"interactiveTime":[],"path":"","strokes":[]},"media_path":"","object_locked":null,"origin_material_id":"","path":"##_draftpath_placeholder_0E685133-18CE-45ED-8CB8-2904A212EC80_##/Resources/local/4b4533e16cd187ef1f4bcda5957d8b7b.mp4","picture_from":"none","picture_set_category_id":"","picture_set_category_name":"","request_id":"","reverse_intensifies_path":"","reverse_path":"","smart_motion":null,"source":0,"source_platform":0,"stable":{"matrix_path":"","stable_level":0,"time_range":{"duration":0,"start":0}},"team_id":"","type":"video","video_algorithm":{"algorithms":[],"complement_frame_config":null,"deflicker":null,"gameplay_configs":[],"motion_blur_config":null,"noise_reduction":null,"path":"","quality_enhance":null,"time_range":null},"width":720},{"aigc_type":"none","audio_fade":null,"cartoon_path":"","category_id":"","category_name":"local","check_flag":63487,"crop":{"lower_left_x":0.0,"lower_left_y":1.0,"lower_right_x":1.0,"lower_right_y":1.0,"upper_left_x":0.0,"upper_left_y":0.0,"upper_right_x":1.0,"upper_right_y":0.0},"crop_ratio":"free","crop_scale":1.0,"duration":5000000,"extra_type_option":0,"formula_id":"","freeze":null,"has_audio":false,"height":1080,"id":"8015072B-4CDB-4d41-B52F-C7B4E712A2BF","intensifies_audio_path":"","intensifies_path":"","is_ai_generate_content":false,"is_copyright":false,"is_text_edit_overdub":false,"is_unified_beauty_mode":false,"local_id":"","local_material_id":"dbeab99b-cf07-4067-ad7f-9b8209cf7e1d","material_id":"","material_name":"03_20250920_1140_No Prompt Provided_storyboard_01k5kwgbvrf68a8cmehrf191a0.mp4","material_url":"","matting":{"flag":0,"has_use_quick_brush":false,"has_use_quick_eraser":false,"interactiveTime":[],"path":"","strokes":[]},"media_path":"","object_locked":null,"origin_material_id":"","path":"##_draftpath_placeholder_0E685133-18CE-45ED-8CB8-2904A212EC80_##/Resources/local/4b4533e16cd187ef1f4bcda5957d8b7b.mp4","picture_from":"none","picture_set_category_id":"","picture_set_category_name":"","request_id":"","reverse_intensifies_path":"","reverse_path":"##_draftpath_placeholder_0E685133-18CE-45ED-8CB8-2904A212EC80_##/b57cf9c3990375e9ae2b73a8adb62ed9.mp4","smart_motion":null,"source":0,"source_platform":0,"stable":{"matrix_path":"","stable_level":0,"time_range":{"duration":0,"start":0}},"team_id":"","type":"video","video_algorithm":{"algorithms":[],"complement_frame_config":null,"deflicker":null,"gameplay_configs":[],"motion_blur_config":null,"noise_reduction":null,"path":"","quality_enhance":null,"time_range":null},"width":720},{"aigc_type":"none","audio_fade":null,"cartoon_path":"","category_id":"","category_name":"local","check_flag":63487,"crop":{"lower_left_x":0.0,"lower_left_y":1.0,"lower_right_x":1.0,"lower_right_y":1.0,"upper_left_x":0.0,"upper_left_y":0.0,"upper_right_x":1.0,"upper_right_y":0.0},"crop_ratio":"free","crop_scale":1.0,"duration":5000000,"extra_type_option":0,"formula_id":"","freeze":null,"has_audio":false,"height":1080,"id":"2ED2EA56-9A79-4291-8A9A-8C8438D64217","intensifies_audio_path":"","intensifies_path":"","is_ai_generate_content":false,"is_copyright":false,"is_text_edit_overdub":false,"is_unified_beauty_mode":false,"local_id":"","local_material_id":"e13ec514-4415-4fca-8bb3-638750c3d8b0","material_id":"","material_name":"05_20250920_1250_Unknown Visuals_storyboard_01k5m0gsy7e6eavzsmde1nwt4h.mp4","material_url":"","matting":{"flag":0,"has_use_quick_brush":false,"has_use_quick_eraser":false,"interactiveTime":[],"path":"","strokes":[]},"media_path":"","object_locked":null,"origin_material_id":"","path":"##_draftpath_placeholder_0E685133-18CE-45ED-8CB8-2904A212EC80_##/Resources/local/877443c6e71d9ac76f9aaeaf9ac4599b.mp4","picture_from":"none","picture_set_category_id":"","picture_set_category_name":"","request_id":"","reverse_intensifies_path":"","reverse_path":"","smart_motion":null,"source":0,"source_platform":0,"stable":{"matrix_path":"","stable_level":0,"time_range":{"duration":0,"start":0}},"team_id":"","type":"video","video_algorithm":{"algorithms":[],"complement_frame_config":null,"deflicker":null,"gameplay_configs":[],"motion_blur_config":null,"noise_reduction":null,"path":"","quality_enhance":null,"time_range":null},"width":720},{"aigc_type":"none","audio_fade":null,"cartoon_path":"","category_id":"","category_name":"local","check_flag":63487,"crop":{"lower_left_x":0.0,"lower_left_y":1.0,"lower_right_x":1.0,"lower_right_y":1.0,"upper_left_x":0.0,"upper_left_y":0.0,"upper_right_x":1.0,"upper_right_y":0.0},"crop_ratio":"free","crop_scale":1.0,"duration":5000000,"extra_type_option":0,"formula_id":"","freeze":null,"has_audio":false,"height":1080,"id":"548AEDA9-4998-498b-9B6C-04510680E26B","intensifies_audio_path":"","intensifies_path":"","is_ai_generate_content":false,"is_copyright":false,"is_text_edit_overdub":false,"is_unified_beauty_mode":false,"local_id":"","local_material_id":"85ec6989-8aed-44b4-8329-3d21954b2ca5","material_id":"","material_name":"07_20250920_1251_Serene Nature Walk_storyboard_01k5m0kng3fp09771r81r9ze91.mp4","material_url":"","matting":{"flag":0,"has_use_quick_brush":false,"has_use_quick_eraser":false,"interactiveTime":[],"path":"","strokes":[]},"media_path":"","object_locked":null,"origin_material_id":"","path":"##_draftpath_placeholder_0E685133-18CE-45ED-8CB8-2904A212EC80_##/Resources/local/6fbe5ea554efcae8efc7a677f5df8c96.mp4","picture_from":"none","picture_set_category_id":"","picture_set_category_name":"","request_id":"","reverse_intensifies_path":"","reverse_path":"","smart_motion":null,"source":0,"source_platform":0,"stable":{"matrix_path":"","stable_level":0,"time_range":{"duration":0,"start":0}},"team_id":"","type":"video","video_algorithm":{"algorithms":[],"complement_frame_config":null,"deflicker":null,"gameplay_configs":[],"motion_blur_config":null,"noise_reduction":null,"path":"","quality_enhance":null,"time_range":null},"width":720},{"aigc_type":"none","audio_fade":null,"cartoon_path":"","category_id":"","category_name":"local","check_flag":63487,"crop":{"lower_left_x":0.0,"lower_left_y":1.0,"lower_right_x":1.0,"lower_right_y":1.0,"upper_left_x":0.0,"upper_left_y":0.0,"upper_right_x":1.0,"upper_right_y":0.0},"crop_ratio":"free","crop_scale":1.0,"duration":5000000,"extra_type_option":0,"formula_id":"","freeze":null,"has_audio":false,"height":1080,"id":"E8104019-B630-49ba-88A2-DBFAADD6F6E7","intensifies_audio_path":"","intensifies_path":"","is_ai_generate_content":false,"is_copyright":false,"is_text_edit_overdub":false,"is_unified_beauty_mode":false,"local_id":"","local_material_id":"85ec6989-8aed-44b4-8329-3d21954b2ca5","material_id":"","material_name":"07_20250920_1251_Serene Nature Walk_storyboard_01k5m0kng3fp09771r81r9ze91.mp4","material_url":"","matting":{"flag":0,"has_use_quick_brush":false,"has_use_quick_eraser":false,"interactiveTime":[],"path":"","strokes":[]},"media_path":"","object_locked":null,"origin_material_id":"","path":"##_draftpath_placeholder_0E685133-18CE-45ED-8CB8-2904A212EC80_##/Resources/local/6fbe5ea554efcae8efc7a677f5df8c96.mp4","picture_from":"none","picture_set_category_id":"","picture_set_category_name":"","request_id":"","reverse_intensifies_path":"","reverse_path":"##_draftpath_placeholder_0E685133-18CE-45ED-8CB8-2904A212EC80_##/b548849debdc3c5cc55724cfcb9e86ef.mp4","smart_motion":null,"source":0,"source_platform":0,"stable":{"matrix_path":"","stable_level":0,"time_range":{"duration":0,"start":0}},"team_id":"","type":"video","video_algorithm":{"algorithms":[],"complement_frame_config":null,"deflicker":null,"gameplay_configs":[],"motion_blur_config":null,"noise_reduction":null,"path":"","quality_enhance":null,"time_range":null},"width":720},{"aigc_type":"none","audio_fade":null,"cartoon_path":"","category_id":"","category_name":"local","check_flag":63487,"crop":{"lower_left_x":0.0,"lower_left_y":1.0,"lower_right_x":1.0,"lower_right_y":1.0,"upper_left_x":0.0,"upper_left_y":0.0,"upper_right_x":1.0,"upper_right_y":0.0},"crop_ratio":"free","crop_scale":1.0,"duration":5000000,"extra_type_option":0,"formula_id":"","freeze":null,"has_audio":false,"height":1080,"id":"69175449-6B89-4774-BDA5-45472DACC516","intensifies_audio_path":"","intensifies_path":"","is_ai_generate_content":false,"is_copyright":false,"is_text_edit_overdub":false,"is_unified_beauty_mode":false,"local_id":"","local_material_id":"e13ec514-4415-4fca-8bb3-638750c3d8b0","material_id":"","material_name":"05_20250920_1250_Unknown Visuals_storyboard_01k5m0gsy7e6eavzsmde1nwt4h.mp4","material_url":"","matting":{"flag":0,"has_use_quick_brush":false,"has_use_quick_eraser":false,"interactiveTime":[],"path":"","strokes":[]},"media_path":"","object_locked":null,"origin_material_id":"","path":"##_draftpath_placeholder_0E685133-18CE-45ED-8CB8-2904A212EC80_##/Resources/local/877443c6e71d9ac76f9aaeaf9ac4599b.mp4","picture_from":"none","picture_set_category_id":"","picture_set_category_name":"","request_id":"","reverse_intensifies_path":"","reverse_path":"##_draftpath_placeholder_0E685133-18CE-45ED-8CB8-2904A212EC80_##/f4148d2be4e40a8dcb2a0ebdff7f688f.mp4","smart_motion":null,"source":0,"source_platform":0,"stable":{"matrix_path":"","stable_level":0,"time_range":{"duration":0,"start":0}},"team_id":"","type":"video","video_algorithm":{"algorithms":[],"complement_frame_config":null,"deflicker":null,"gameplay_configs":[],"motion_blur_config":null,"noise_reduction":null,"path":"","quality_enhance":null,"time_range":null},"width":720},{"aigc_type":"none","audio_fade":null,"cartoon_path":"","category_id":"","category_name":"local","check_flag":63487,"crop":{"lower_left_x":0.0,"lower_left_y":1.0,"lower_right_x":1.0,"lower_right_y":1.0,"upper_left_x":0.0,"upper_left_y":0.0,"upper_right_x":1.0,"upper_right_y":0.0},"crop_ratio":"free","crop_scale":1.0,"duration":5000000,"extra_type_option":0,"formula_id":"","freeze":null,"has_audio":false,"height":1080,"id":"22A814D5-007F-449e-A7E1-B4E194A51EB3","intensifies_audio_path":"","intensifies_path":"","is_ai_generate_content":false,"is_copyright":false,"is_text_edit_overdub":false,"is_unified_beauty_mode":false,"local_id":"","local_material_id":"dbeab99b-cf07-4067-ad7f-9b8209cf7e1d","material_id":"","material_name":"03_20250920_1140_No Prompt Provided_storyboard_01k5kwgbvrf68a8cmehrf191a0.mp4","material_url":"","matting":{"flag":0,"has_use_quick_brush":false,"has_use_quick_eraser":false,"interactiveTime":[],"path":"","strokes":[]},"media_path":"","object_locked":null,"origin_material_id":"","path":"##_draftpath_placeholder_0E685133-18CE-45ED-8CB8-2904A212EC80_##/Resources/local/4b4533e16cd187ef1f4bcda5957d8b7b.mp4","picture_from":"none","picture_set_category_id":"","picture_set_category_name":"","request_id":"","reverse_intensifies_path":"","reverse_path":"","smart_motion":null,"source":0,"source_platform":0,"stable":{"matrix_path":"","stable_level":0,"time_range":{"duration":0,"start":0}},"team_id":"","type":"video","video_algorithm":{"algorithms":[],"complement_frame_config":null,"deflicker":null,"gameplay_configs":[],"motion_blur_config":null,"noise_reduction":null,"path":"","quality_enhance":null,"time_range":null},"width":720},{"aigc_type":"none","audio_fade":null,"cartoon_path":"","category_id":"","category_name":"local","check_flag":63487,"crop":{"lower_left_x":0.0,"lower_left_y":1.0,"lower_right_x":1.0,"lower_right_y":1.0,"upper_left_x":0.0,"upper_left_y":0.0,"upper_right_x":1.0,"upper_right_y":0.0},"crop_ratio":"free","crop_scale":1.0,"duration":5000000,"extra_type_option":0,"formula_id":"","freeze":null,"has_audio":false,"height":1080,"id":"65F856F4-A96E-477b-B9B6-6BD4AEC8E47D","intensifies_audio_path":"","intensifies_path":"","is_ai_generate_content":false,"is_copyright":false,"is_text_edit_overdub":false,"is_unified_beauty_mode":false,"local_id":"","local_material_id":"f3d399ea-913b-4bae-b9a8-fd183030e9b6","material_id":"","material_name":"04_20250920_1248_New Video_storyboard_01k5m0e9h6ep4s9gyfa8cmrmkj.mp4","material_url":"","matting":{"flag":0,"has_use_quick_brush":false,"has_use_quick_eraser":false,"interactiveTime":[],"path":"","strokes":[]},"media_path":"","object_locked":null,"origin_material_id":"","path":"##_draftpath_placeholder_0E685133-18CE-45ED-8CB8-2904A212EC80_##/Resources/local/e0cb1079531ec843926b857a9b0f56d9.mp4","picture_from":"none","picture_set_category_id":"","picture_set_category_name":"","request_id":"","reverse_intensifies_path":"","reverse_path":"","smart_motion":null,"source":0,"source_platform":0,"stable":{"matrix_path":"","stable_level":0,"time_range":{"duration":0,"start":0}},"team_id":"","type":"video","video_algorithm":{"algorithms":[],"complement_frame_config":null,"deflicker":null,"gameplay_configs":[],"motion_blur_config":null,"noise_reduction":null,"path":"","quality_enhance":null,"time_range":null},"width":720},{"aigc_type":"none","audio_fade":null,"cartoon_path":"","category_id":"","category_name":"local","check_flag":63487,"crop":{"lower_left_x":0.0,"lower_left_y":1.0,"lower_right_x":1.0,"lower_right_y":1.0,"upper_left_x":0.0,"upper_left_y":0.0,"upper_right_x":1.0,"upper_right_y":0.0},"crop_ratio":"free","crop_scale":1.0,"duration":5000000,"extra_type_option":0,"formula_id":"","freeze":null,"has_audio":false,"height":1080,"id":"EF86E679-6A31-4284-BC61-1A7F4DA0E0A4","intensifies_audio_path":"","intensifies_path":"","is_ai_generate_content":false,"is_copyright":false,"is_text_edit_overdub":false,"is_unified_beauty_mode":false,"local_id":"","local_material_id":"0fd85938-0d8c-46b1-8e12-77cb23dbec43","material_id":"","material_name":"06_20250920_1250_No Prompt Provided_storyboard_01k5m0j4vde6nvnba2dcnyn3ab.mp4","material_url":"","matting":{"flag":0,"has_use_quick_brush":false,"has_use_quick_eraser":false,"interactiveTime":[],"path":"","strokes":[]},"media_path":"","object_locked":null,"origin_material_id":"","path":"##_draftpath_placeholder_0E685133-18CE-45ED-8CB8-2904A212EC80_##/Resources/local/a191a0d61eef1d365f551f9688355cdc.mp4","picture_from":"none","picture_set_category_id":"","picture_set_category_name":"","request_id":"","reverse_intensifies_path":"","reverse_path":"","smart_motion":null,"source":0,"source_platform":0,"stable":{"matrix_path":"","stable_level":0,"time_range":{"duration":0,"start":0}},"team_id":"","type":"video","video_algorithm":{"algorithms":[],"complement_frame_config":null,"deflicker":null,"gameplay_configs":[],"motion_blur_config":null,"noise_reduction":null,"path":"","quality_enhance":null,"time_range":null},"width":720},{"aigc_type":"none","audio_fade":null,"cartoon_path":"","category_id":"","category_name":"local","check_flag":63487,"crop":{"lower_left_x":0.0,"lower_left_y":1.0,"lower_right_x":1.0,"lower_right_y":1.0,"upper_left_x":0.0,"upper_left_y":0.0,"upper_right_x":1.0,"upper_right_y":0.0},"crop_ratio":"free","crop_scale":1.0,"duration":5000000,"extra_type_option":0,"formula_id":"","freeze":null,"has_audio":false,"height":1080,"id":"5E8CB7B1-D81C-4ee8-B962-FE23EBE877F0","intensifies_audio_path":"","intensifies_path":"","is_ai_generate_content":false,"is_copyright":false,"is_text_edit_overdub":false,"is_unified_beauty_mode":false,"local_id":"","local_material_id":"c407dcbc-8d87-4a83-8467-300038319777","material_id":"","material_name":"08_20250920_1255_No Prompt Provided_storyboard_01k5m0v33hfw385a6epse700m0.mp4","material_url":"","matting":{"flag":0,"has_use_quick_brush":false,"has_use_quick_eraser":false,"interactiveTime":[],"path":"","strokes":[]},"media_path":"","object_locked":null,"origin_material_id":"","path":"##_draftpath_placeholder_0E685133-18CE-45ED-8CB8-2904A212EC80_##/Resources/local/4b71e6a2068c66ea9806b64552a59e1f.mp4","picture_from":"none","picture_set_category_id":"","picture_set_category_name":"","request_id":"","reverse_intensifies_path":"","reverse_path":"","smart_motion":null,"source":0,"source_platform":0,"stable":{"matrix_path":"","stable_level":0,"time_range":{"duration":0,"start":0}},"team_id":"","type":"video","video_algorithm":{"algorithms":[],"complement_frame_config":null,"deflicker":null,"gameplay_configs":[],"motion_blur_config":null,"noise_reduction":null,"path":"","quality_enhance":null,"time_range":null},"width":720},{"aigc_type":"none","audio_fade":null,"cartoon_path":"","category_id":"","category_name":"local","check_flag":63487,"crop":{"lower_left_x":0.0,"lower_left_y":1.0,"lower_right_x":1.0,"lower_right_y":1.0,"upper_left_x":0.0,"upper_left_y":0.0,"upper_right_x":1.0,"upper_right_y":0.0},"crop_ratio":"free","crop_scale":1.0,"duration":5000000,"extra_type_option":0,"formula_id":"","freeze":null,"has_audio":false,"height":1080,"id":"8C58BA7F-812E-46ea-9E30-824A52C21E47","intensifies_audio_path":"","intensifies_path":"","is_ai_generate_content":false,"is_copyright":false,"is_text_edit_overdub":false,"is_unified_beauty_mode":false,"local_id":"","local_material_id":"c407dcbc-8d87-4a83-8467-300038319777","material_id":"","material_name":"08_20250920_1255_No Prompt Provided_storyboard_01k5m0v33hfw385a6epse700m0.mp4","material_url":"","matting":{"flag":0,"has_use_quick_brush":false,"has_use_quick_eraser":false,"interactiveTime":[],"path":"","strokes":[]},"media_path":"","object_locked":null,"origin_material_id":"","path":"##_draftpath_placeholder_0E685133-18CE-45ED-8CB8-2904A212EC80_##/Resources/local/4b71e6a2068c66ea9806b64552a59e1f.mp4","picture_from":"none","picture_set_category_id":"","picture_set_category_name":"","request_id":"","reverse_intensifies_path":"","reverse_path":"##_draftpath_placeholder_0E685133-18CE-45ED-8CB8-2904A212EC80_##/d6aa4b1d6f45a5e8b233b6f932cb68f5.mp4","smart_motion":null,"source":0,"source_platform":0,"stable":{"matrix_path":"","stable_level":0,"time_range":{"duration":0,"start":0}},"team_id":"","type":"video","video_algorithm":{"algorithms":[],"complement_frame_config":null,"deflicker":null,"gameplay_configs":[],"motion_blur_config":null,"noise_reduction":null,"path":"","quality_enhance":null,"time_range":null},"width":720},{"aigc_type":"none","audio_fade":null,"cartoon_path":"","category_id":"","category_name":"local","check_flag":63487,"crop":{"lower_left_x":0.0,"lower_left_y":1.0,"lower_right_x":1.0,"lower_right_y":1.0,"upper_left_x":0.0,"upper_left_y":0.0,"upper_right_x":1.0,"upper_right_y":0.0},"crop_ratio":"free","crop_scale":1.0,"duration":5000000,"extra_type_option":0,"formula_id":"","freeze":null,"has_audio":false,"height":1080,"id":"9A0157EB-8876-4a08-BCBA-47960EED0C3B","intensifies_audio_path":"","intensifies_path":"","is_ai_generate_content":false,"is_copyright":false,"is_text_edit_overdub":false,"is_unified_beauty_mode":false,"local_id":"","local_material_id":"4268e65d-cde1-421b-8b9c-22816874a3e4","material_id":"","material_name":"09_20250920_1255_No Prompt Provided_storyboard_01k5m0v339f6f8vh7w0q8ab79x.mp4","material_url":"","matting":{"flag":0,"has_use_quick_brush":false,"has_use_quick_eraser":false,"interactiveTime":[],"path":"","strokes":[]},"media_path":"","object_locked":null,"origin_material_id":"","path":"##_draftpath_placeholder_0E685133-18CE-45ED-8CB8-2904A212EC80_##/Resources/local/24ecf6a578817d308aedcfd2602f24d3.mp4","picture_from":"none","picture_set_category_id":"","picture_set_category_name":"","request_id":"","reverse_intensifies_path":"","reverse_path":"","smart_motion":null,"source":0,"source_platform":0,"stable":{"matrix_path":"","stable_level":0,"time_range":{"duration":0,"start":0}},"team_id":"","type":"video","video_algorithm":{"algorithms":[],"complement_frame_config":null,"deflicker":null,"gameplay_configs":[],"motion_blur_config":null,"noise_reduction":null,"path":"","quality_enhance":null,"time_range":null},"width":720},{"aigc_type":"none","audio_fade":null,"cartoon_path":"","category_id":"","category_name":"local","check_flag":63487,"crop":{"lower_left_x":0.0,"lower_left_y":1.0,"lower_right_x":1.0,"lower_right_y":1.0,"upper_left_x":0.0,"upper_left_y":0.0,"upper_right_x":1.0,"upper_right_y":0.0},"crop_ratio":"free","crop_scale":1.0,"duration":5000000,"extra_type_option":0,"formula_id":"","freeze":null,"has_audio":false,"height":1080,"id":"7346F3F2-C000-4860-A62E-61CE883A7765","intensifies_audio_path":"","intensifies_path":"","is_ai_generate_content":false,"is_copyright":false,"is_text_edit_overdub":false,"is_unified_beauty_mode":false,"local_id":"","local_material_id":"7ad84b79-7efd-4337-a4f5-d12a685a3756","material_id":"","material_name":"10_20250920_1313_No Visual Prompt Provided_storyboard_01k5m1txkjfrvbdyh0jd20mkss.mp4","material_url":"","matting":{"flag":0,"has_use_quick_brush":false,"has_use_quick_eraser":false,"interactiveTime":[],"path":"","strokes":[]},"media_path":"","object_locked":null,"origin_material_id":"","path":"##_draftpath_placeholder_0E685133-18CE-45ED-8CB8-2904A212EC80_##/Resources/local/a8322cff925cfbcabae70da32d3afa4a.mp4","picture_from":"none","picture_set_category_id":"","picture_set_category_name":"","request_id":"","reverse_intensifies_path":"","reverse_path":"","smart_motion":null,"source":0,"source_platform":0,"stable":{"matrix_path":"","stable_level":0,"time_range":{"duration":0,"start":0}},"team_id":"","type":"video","video_algorithm":{"algorithms":[],"complement_frame_config":null,"deflicker":null,"gameplay_configs":[],"motion_blur_config":null,"noise_reduction":null,"path":"","quality_enhance":null,"time_range":null},"width":720}],"vocal_beautifys":[],"vocal_separations":[{"choice":0,"id":"C2A1BF14-9D9B-4e65-A1B0-21F715E36496","production_path":"","time_range":null,"type":"vocal_separation"},{"choice":0,"id":"57D4016B-AEA6-4f1c-A7AA-D74C8C1ED3A3","production_path":"","time_range":null,"type":"vocal_separation"},{"choice":0,"id":"7AD121D4-201E-4e3a-ACC3-5845BA072055","production_path":"","time_range":null,"type":"vocal_separation"},{"choice":0,"id":"59C9B067-C770-476a-9756-70C4283CDAA3","production_path":"","time_range":null,"type":"vocal_separation"},{"choice":0,"id":"8C4D59C0-5C19-479c-B5DF-8DAB7E5B6100","production_path":"","time_range":null,"type":"vocal_separation"},{"choice":0,"id":"BDFFA0E4-C15D-44c6-B87D-451A3ABEE3CA","production_path":"","time_range":null,"type":"vocal_separation"},{"choice":0,"id":"180AF372-31CC-4ee4-BA61-9A2B48833AC2","production_path":"","time_range":null,"type":"vocal_separation"},{"choice":0,"id":"5967925A-993A-4b5e-8059-7CF3C828E8E7","production_path":"","time_range":null,"type":"vocal_separation"},{"choice":0,"id":"CC30A3BA-4BBF-4136-9872-9992D7987A5F","production_path":"","time_range":null,"type":"vocal_separation"},{"choice":0,"id":"6C8BC18A-683C-480d-AE0C-3A9068960422","production_path":"","time_range":null,"type":"vocal_separation"},{"choice":0,"id":"08119F88-1F72-4f9c-91FE-317482AF6002","production_path":"","time_range":null,"type":"vocal_separation"},{"choice":0,"id":"5ECA802D-53C2-429f-9EEE-A217483C4B1D","production_path":"","time_range":null,"type":"vocal_separation"},{"choice":0,"id":"2D914518-9359-4327-9616-50437145F129","production_path":"","time_range":null,"type":"vocal_separation"},{"choice":0,"id":"F5D24775-6B45-4df2-8D33-34A250919C1B","production_path":"","time_range":null,"type":"vocal_separation"},{"choice":0,"id":"666CD935-7340-48dc-88ED-F42D01F2647F","production_path":"","time_range":null,"type":"vocal_separation"}]},"mutable_config":null,"name":"","new_version":"110.0.0","platform":{"app_id":359289,"app_source":"cc","app_version":"3.9.0","device_id":"b000ef05ad8a2c8de98905bbc4a2a13d","hard_disk_id":"98697f5b2672733057711c84e4b517c3","mac_address":"3ab780bc59d11a00e1ba676c31de1115,09861091e4eef2367b35d8703476edfc","os":"windows","os_version":"10.0.26100"},"relationships":[],"render_index_track_mode_on":true,"retouch_cover":null,"source":"default","static_cover_image_path":"","time_marks":null,"tracks":[{"attribute":0,"flag":0,"id":"DFFE120E-809E-41d4-998D-C5E394A6804C","is_default_name":true,"name":"","segments":[{"caption_info":null,"cartoon":false,"clip":{"alpha":1.0,"flip":{"horizontal":false,"vertical":false},"rotation":0.0,"scale":{"x":1.0,"y":1.0},"transform":{"x":0.0,"y":0.0}},"common_keyframes":[],"enable_adjust":true,"enable_color_correct_adjust":false,"enable_color_curves":true,"enable_color_match_adjust":false,"enable_color_wheels":true,"enable_lut":true,"enable_smart_color_adjust":false,"extra_material_refs":["913A7135-9B04-4295-B78F-A0909E50F1CF","9708E91E-567D-4d7f-BC34-148BCE32A52C","95244F6C-FF0C-4173-9830-9743A4FFDF50","5B79F203-D810-43cf-B65C-7655730E90FB","ABAADB20-99EA-458c-92A1-11E3F1697023","C2A1BF14-9D9B-4e65-A1B0-21F715E36496"],"group_id":"","hdr_settings":{"intensity":1.0,"mode":1,"nits":1000},"id":"86CDB0AC-A805-4228-9A08-CDEDAE8EDF19","intensifies_audio":false,"is_placeholder":false,"is_tone_modify":false,"keyframe_refs":[],"last_nonzero_volume":1.0,"material_id":"B5FB78E0-1609-4107-96C1-D6B40D90C0FC","render_index":0,"responsive_layout":{"enable":false,"horizontal_pos_layout":0,"size_layout":0,"target_follow":"","vertical_pos_layout":0},"reverse":false,"source_timerange":{"duration":5000000,"start":0},"speed":1.0,"target_timerange":{"duration":5000000,"start":0},"template_id":"","template_scene":"default","track_attribute":0,"track_render_index":0,"uniform_scale":{"on":true,"value":1.0},"visible":true,"volume":1.0},{"caption_info":null,"cartoon":false,"clip":{"alpha":1.0,"flip":{"horizontal":false,"vertical":false},"rotation":0.0,"scale":{"x":1.0,"y":1.0},"transform":{"x":0.0,"y":0.0}},"common_keyframes":[],"enable_adjust":true,"enable_color_correct_adjust":false,"enable_color_curves":true,"enable_color_match_adjust":false,"enable_color_wheels":true,"enable_lut":true,"enable_smart_color_adjust":false,"extra_material_refs":["4A026B8F-8C72-417a-9C85-07BF66B3A308","5C87210D-F407-488a-9963-36339CF0BDEA","E34201EA-E2EA-47da-B732-377937B34B8D","56D050DA-1A47-45ba-AABF-C6DFECC7557C","F9D2B12C-6DED-4d66-A73E-2FEE0D207170","57D4016B-AEA6-4f1c-A7AA-D74C8C1ED3A3"],"group_id":"","hdr_settings":{"intensity":1.0,"mode":1,"nits":1000},"id":"6F3C737C-B71C-4e37-83CF-215DCAC3BE53","intensifies_audio":false,"is_placeholder":false,"is_tone_modify":false,"keyframe_refs":[],"last_nonzero_volume":1.0,"material_id":"723824E1-D3D3-41fc-959F-DA4FE25B45C8","render_index":0,"responsive_layout":{"enable":false,"horizontal_pos_layout":0,"size_layout":0,"target_follow":"","vertical_pos_layout":0},"reverse":false,"source_timerange":{"duration":4500000,"start":500000},"speed":1.0,"target_timerange":{"duration":4500000,"start":5000000},"template_id":"","template_scene":"default","track_attribute":0,"track_render_index":0,"uniform_scale":{"on":true,"value":1.0},"visible":true,"volume":1.0},{"caption_info":null,"cartoon":false,"clip":{"alpha":1.0,"flip":{"horizontal":false,"vertical":false},"rotation":0.0,"scale":{"x":1.0,"y":1.0},"transform":{"x":0.0,"y":0.0}},"common_keyframes":[],"enable_adjust":true,"enable_color_correct_adjust":false,"enable_color_curves":true,"enable_color_match_adjust":false,"enable_color_wheels":true,"enable_lut":true,"enable_smart_color_adjust":false,"extra_material_refs":["C362D176-9CA5-4bd8-A203-0BD62BCD1B44","B32E50E9-8CDD-4916-AE43-09EAE8D3F804","6E567A6D-A159-4eab-8496-089B9B431B5B","C79C55EB-0361-4a09-A733-4D9D091630D4","AD18898F-B32A-4d37-86E8-3E8F9904D45C","7AD121D4-201E-4e3a-ACC3-5845BA072055"],"group_id":"","hdr_settings":{"intensity":1.0,"mode":1,"nits":1000},"id":"1D34FAF5-DABA-4c27-B47D-8C299EC582F5","intensifies_audio":false,"is_placeholder":false,"is_tone_modify":false,"keyframe_refs":[],"last_nonzero_volume":1.0,"material_id":"0AABA6B3-196C-4e32-8AE1-6DF42064A6CC","render_index":0,"responsive_layout":{"enable":false,"horizontal_pos_layout":0,"size_layout":0,"target_follow":"","vertical_pos_layout":0},"reverse":false,"source_timerange":{"duration":4466667,"start":533333},"speed":1.0,"target_timerange":{"duration":4466666,"start":9500000},"template_id":"","template_scene":"default","track_attribute":0,"track_render_index":0,"uniform_scale":{"on":true,"value":1.0},"visible":true,"volume":1.0},{"caption_info":null,"cartoon":false,"clip":{"alpha":1.0,"flip":{"horizontal":false,"vertical":false},"rotation":0.0,"scale":{"x":1.0,"y":1.0},"transform":{"x":0.0,"y":0.0}},"common_keyframes":[],"enable_adjust":true,"enable_color_correct_adjust":false,"enable_color_curves":true,"enable_color_match_adjust":false,"enable_color_wheels":true,"enable_lut":true,"enable_smart_color_adjust":false,"extra_material_refs":["19BA1957-78B0-48bf-80E5-E3AB74C3E1F5","35389B13-ADD3-46d7-8326-204209086974","09612D6D-168B-43ac-9D5A-279BDF4BB718","B04794F6-BA49-4cee-AFB7-F95BF48B0C9F","B87F4660-86FF-4c13-A575-0D1EDCC0FA20","59C9B067-C770-476a-9756-70C4283CDAA3"],"group_id":"","hdr_settings":{"intensity":1.0,"mode":1,"nits":1000},"id":"78BE3EA0-C13B-4c24-A2C4-0E7DA9B2CD62","intensifies_audio":false,"is_placeholder":false,"is_tone_modify":false,"keyframe_refs":[],"last_nonzero_volume":1.0,"material_id":"8015072B-4CDB-4d41-B52F-C7B4E712A2BF","render_index":0,"responsive_layout":{"enable":false,"horizontal_pos_layout":0,"size_layout":0,"target_follow":"","vertical_pos_layout":0},"reverse":true,"source_timerange":{"duration":5000000,"start":0},"speed":1.0,"target_timerange":{"duration":5000000,"start":13966666},"template_id":"","template_scene":"default","track_attribute":0,"track_render_index":0,"uniform_scale":{"on":true,"value":1.0},"visible":true,"volume":1.0},{"caption_info":null,"cartoon":false,"clip":{"alpha":1.0,"flip":{"horizontal":false,"vertical":false},"rotation":0.0,"scale":{"x":1.0,"y":1.0},"transform":{"x":0.0,"y":0.0}},"common_keyframes":[],"enable_adjust":true,"enable_color_correct_adjust":false,"enable_color_curves":true,"enable_color_match_adjust":false,"enable_color_wheels":true,"enable_lut":true,"enable_smart_color_adjust":false,"extra_material_refs":["0ADEF183-2437-424c-8999-4AD4C5BD76B9","95DBCD74-678E-491c-8AAD-867F0F30ED13","88F6700A-46BB-4656-9086-B82D7A458309","3CCA5F34-CA39-43dc-8FC5-CA40E55AE1E5","DC22CC6C-1664-4b56-9E56-8541071BE8A5","8C4D59C0-5C19-479c-B5DF-8DAB7E5B6100"],"group_id":"","hdr_settings":{"intensity":1.0,"mode":1,"nits":1000},"id":"10681CF6-03C7-45d0-BACA-BF08B915B44F","intensifies_audio":false,"is_placeholder":false,"is_tone_modify":false,"keyframe_refs":[],"last_nonzero_volume":1.0,"material_id":"2ED2EA56-9A79-4291-8A9A-8C8438D64217","render_index":0,"responsive_layout":{"enable":false,"horizontal_pos_layout":0,"size_layout":0,"target_follow":"","vertical_pos_layout":0},"reverse":false,"source_timerange":{"duration":5000000,"start":0},"speed":1.0,"target_timerange":{"duration":5000000,"start":18966666},"template_id":"","template_scene":"default","track_attribute":0,"track_render_index":0,"uniform_scale":{"on":true,"value":1.0},"visible":true,"volume":1.0},{"caption_info":null,"cartoon":false,"clip":{"alpha":1.0,"flip":{"horizontal":false,"vertical":false},"rotation":0.0,"scale":{"x":1.0,"y":1.0},"transform":{"x":0.0,"y":0.0}},"common_keyframes":[],"enable_adjust":true,"enable_color_correct_adjust":false,"enable_color_curves":true,"enable_color_match_adjust":false,"enable_color_wheels":true,"enable_lut":true,"enable_smart_color_adjust":false,"extra_material_refs":["B31A4BBB-3884-4cb7-80EE-39917C64914E","14AD72C5-8190-4d5a-BFEF-2AE078FF90DC","2D3C4B2E-9818-4e6c-BB33-0C7B1A8FD784","D90F0FCF-C19E-4453-BC2F-D419582B89AE","BDFFA0E4-C15D-44c6-B87D-451A3ABEE3CA"],"group_id":"","hdr_settings":{"intensity":1.0,"mode":1,"nits":1000},"id":"607EFD6B-A617-4c9a-B530-1404B8F88749","intensifies_audio":false,"is_placeholder":false,"is_tone_modify":false,"keyframe_refs":[],"last_nonzero_volume":1.0,"material_id":"548AEDA9-4998-498b-9B6C-04510680E26B","render_index":0,"responsive_layout":{"enable":false,"horizontal_pos_layout":0,"size_layout":0,"target_follow":"","vertical_pos_layout":0},"reverse":false,"source_timerange":{"duration":4566666,"start":433334},"speed":1.0,"target_timerange":{"duration":4566667,"start":23966666},"template_id":"","template_scene":"default","track_attribute":0,"track_render_index":0,"uniform_scale":{"on":true,"value":1.0},"visible":true,"volume":1.0},{"caption_info":null,"cartoon":false,"clip":{"alpha":1.0,"flip":{"horizontal":false,"vertical":false},"rotation":0.0,"scale":{"x":1.0,"y":1.0},"transform":{"x":0.0,"y":0.0}},"common_keyframes":[],"enable_adjust":true,"enable_color_correct_adjust":false,"enable_color_curves":true,"enable_color_match_adjust":false,"enable_color_wheels":true,"enable_lut":true,"enable_smart_color_adjust":false,"extra_material_refs":["7083D9C4-EFAF-4e62-8E7D-DA06F0A9E42C","B7CCE3DD-478E-4324-B47B-5E6E6E3D1869","7441708A-5EF8-49cc-9876-89662E5263F8","46D94615-341E-4853-B4A1-375E19B5F7CC","180AF372-31CC-4ee4-BA61-9A2B48833AC2"],"group_id":"","hdr_settings":{"intensity":1.0,"mode":1,"nits":1000},"id":"2DF807FC-5B24-447b-AE59-5A4CAB1FF809","intensifies_audio":false,"is_placeholder":false,"is_tone_modify":false,"keyframe_refs":[],"last_nonzero_volume":1.0,"material_id":"E8104019-B630-49ba-88A2-DBFAADD6F6E7","render_index":0,"responsive_layout":{"enable":false,"horizontal_pos_layout":0,"size_layout":0,"target_follow":"","vertical_pos_layout":0},"reverse":true,"source_timerange":{"duration":5000000,"start":0},"speed":1.0,"target_timerange":{"duration":5000000,"start":28533333},"template_id":"","template_scene":"default","track_attribute":0,"track_render_index":0,"uniform_scale":{"on":true,"value":1.0},"visible":true,"volume":1.0},{"caption_info":null,"cartoon":false,"clip":{"alpha":1.0,"flip":{"horizontal":false,"vertical":false},"rotation":0.0,"scale":{"x":1.0,"y":1.0},"transform":{"x":0.0,"y":0.0}},"common_keyframes":[],"enable_adjust":true,"enable_color_correct_adjust":false,"enable_color_curves":true,"enable_color_match_adjust":false,"enable_color_wheels":true,"enable_lut":true,"enable_smart_color_adjust":false,"extra_material_refs":["A03934C6-9786-4b2c-B920-3E564B66AC37","B4DA4B50-7C72-447e-92EB-307E38760C55","FEA31145-2DB6-44c3-B351-80E68B4D9A62","7490C7E3-2814-48db-AD16-DF2AAC3D3C6D","37492709-884A-4254-9A9C-6B5E450DFFFB","5967925A-993A-4b5e-8059-7CF3C828E8E7"],"group_id":"","hdr_settings":{"intensity":1.0,"mode":1,"nits":1000},"id":"5B92378E-5B11-48d1-B4CC-91CABDACD6AE","intensifies_audio":false,"is_placeholder":false,"is_tone_modify":false,"keyframe_refs":[],"last_nonzero_volume":1.0,"material_id":"69175449-6B89-4774-BDA5-45472DACC516","render_index":0,"responsive_layout":{"enable":false,"horizontal_pos_layout":0,"size_layout":0,"target_follow":"","vertical_pos_layout":0},"reverse":true,"source_timerange":{"duration":4466667,"start":533333},"speed":1.0,"target_timerange":{"duration":4466667,"start":33533333},"template_id":"","template_scene":"default","track_attribute":0,"track_render_index":0,"uniform_scale":{"on":true,"value":1.0},"visible":true,"volume":1.0},{"caption_info":null,"cartoon":false,"clip":{"alpha":1.0,"flip":{"horizontal":false,"vertical":false},"rotation":0.0,"scale":{"x":1.0,"y":1.0},"transform":{"x":0.0,"y":0.0}},"common_keyframes":[],"enable_adjust":true,"enable_color_correct_adjust":false,"enable_color_curves":true,"enable_color_match_adjust":false,"enable_color_wheels":true,"enable_lut":true,"enable_smart_color_adjust":false,"extra_material_refs":["5F6495CC-4327-4136-90C6-B02161F8D062","0AC5A7C9-AD91-40e2-8D83-7868F694FECE","D9DCBAB2-6002-41ef-83D6-3DD46D40253B","E9C13BC0-16B2-457d-B961-201111BD1A41","6DC61AE2-3715-4005-9507-CCE0E24BABE0","CC30A3BA-4BBF-4136-9872-9992D7987A5F"],"group_id":"","hdr_settings":{"intensity":1.0,"mode":1,"nits":1000},"id":"F74B31B3-6034-4044-849F-AE6B4F147934","intensifies_audio":false,"is_placeholder":false,"is_tone_modify":false,"keyframe_refs":[],"last_nonzero_volume":1.0,"material_id":"22A814D5-007F-449e-A7E1-B4E194A51EB3","render_index":0,"responsive_layout":{"enable":false,"horizontal_pos_layout":0,"size_layout":0,"target_follow":"","vertical_pos_layout":0},"reverse":false,"source_timerange":{"duration":5000000,"start":0},"speed":1.0,"target_timerange":{"duration":5000000,"start":38000000},"template_id":"","template_scene":"default","track_attribute":0,"track_render_index":0,"uniform_scale":{"on":true,"value":1.0},"visible":true,"volume":1.0},{"caption_info":null,"cartoon":false,"clip":{"alpha":1.0,"flip":{"horizontal":false,"vertical":false},"rotation":0.0,"scale":{"x":1.0,"y":1.0},"transform":{"x":0.0,"y":0.0}},"common_keyframes":[],"enable_adjust":true,"enable_color_correct_adjust":false,"enable_color_curves":true,"enable_color_match_adjust":false,"enable_color_wheels":true,"enable_lut":true,"enable_smart_color_adjust":false,"extra_material_refs":["2607EA7F-D8FC-4061-BD6B-55319659D537","D5D9AD6F-B368-4089-BE61-AF5DF9D0FFF1","9F8700B9-23F9-4834-9DD1-C413A2ECFBC2","F425798E-735A-42c0-BF15-E07D4F544CCA","906C1E10-88E9-4da7-AFF9-8320DFF92622","6C8BC18A-683C-480d-AE0C-3A9068960422"],"group_id":"","hdr_settings":{"intensity":1.0,"mode":1,"nits":1000},"id":"921DA421-4529-48e8-8B44-169041F4783A","intensifies_audio":false,"is_placeholder":false,"is_tone_modify":false,"keyframe_refs":[],"last_nonzero_volume":1.0,"material_id":"65F856F4-A96E-477b-B9B6-6BD4AEC8E47D","render_index":0,"responsive_layout":{"enable":false,"horizontal_pos_layout":0,"size_layout":0,"target_follow":"","vertical_pos_layout":0},"reverse":false,"source_timerange":{"duration":4466667,"start":533333},"speed":1.0,"target_timerange":{"duration":4466666,"start":43000000},"template_id":"","template_scene":"default","track_attribute":0,"track_render_index":0,"uniform_scale":{"on":true,"value":1.0},"visible":true,"volume":1.0},{"caption_info":null,"cartoon":false,"clip":{"alpha":1.0,"flip":{"horizontal":false,"vertical":false},"rotation":0.0,"scale":{"x":1.0,"y":1.0},"transform":{"x":0.0,"y":0.0}},"common_keyframes":[],"enable_adjust":true,"enable_color_correct_adjust":false,"enable_color_curves":true,"enable_color_match_adjust":false,"enable_color_wheels":true,"enable_lut":true,"enable_smart_color_adjust":false,"extra_material_refs":["8C1BB76C-03FD-4460-889C-B68CFCF09302","FB1AAC4D-B574-4002-B3A4-B48B35BE64A8","1DFE276A-B1BB-4a19-BB70-A3DA16A4ABA6","8166B5CE-8CA4-4368-94EC-ACEB00DD5AF8","6A51056B-0AF4-48d6-B4AB-4615B8E5A2F2","08119F88-1F72-4f9c-91FE-317482AF6002"],"group_id":"","hdr_settings":{"intensity":1.0,"mode":1,"nits":1000},"id":"C3125F1F-CD7A-42a8-9A91-48203CD3B9E0","intensifies_audio":false,"is_placeholder":false,"is_tone_modify":false,"keyframe_refs":[],"last_nonzero_volume":1.0,"material_id":"EF86E679-6A31-4284-BC61-1A7F4DA0E0A4","render_index":0,"responsive_layout":{"enable":false,"horizontal_pos_layout":0,"size_layout":0,"target_follow":"","vertical_pos_layout":0},"reverse":false,"source_timerange":{"duration":4599999,"start":400001},"speed":1.0,"target_timerange":{"duration":4600000,"start":47466666},"template_id":"","template_scene":"default","track_attribute":0,"track_render_index":0,"uniform_scale":{"on":true,"value":1.0},"visible":true,"volume":1.0},{"caption_info":null,"cartoon":false,"clip":{"alpha":1.0,"flip":{"horizontal":false,"vertical":false},"rotation":0.0,"scale":{"x":1.0,"y":1.0},"transform":{"x":0.0,"y":0.0}},"common_keyframes":[],"enable_adjust":true,"enable_color_correct_adjust":false,"enable_color_curves":true,"enable_color_match_adjust":false,"enable_color_wheels":true,"enable_lut":true,"enable_smart_color_adjust":false,"extra_material_refs":["7C18DF2B-6B78-4063-8469-41481CA6BA44","0118528C-5C1A-44f0-807C-00BE399C14F3","BA1EEFD9-20C2-4692-B7E0-FB3A6A05554D","F1AE73ED-222F-450b-86D7-F3DA156DCB24","5ECA802D-53C2-429f-9EEE-A217483C4B1D"],"group_id":"","hdr_settings":{"intensity":1.0,"mode":1,"nits":1000},"id":"4A6E8A96-785D-4123-9095-5BC555FACB92","intensifies_audio":false,"is_placeholder":false,"is_tone_modify":false,"keyframe_refs":[],"last_nonzero_volume":1.0,"material_id":"5E8CB7B1-D81C-4ee8-B962-FE23EBE877F0","render_index":0,"responsive_layout":{"enable":false,"horizontal_pos_layout":0,"size_layout":0,"target_follow":"","vertical_pos_layout":0},"reverse":false,"source_timerange":{"duration":3933333,"start":1066667},"speed":1.0,"target_timerange":{"duration":3933334,"start":52066666},"template_id":"","template_scene":"default","track_attribute":0,"track_render_index":0,"uniform_scale":{"on":true,"value":1.0},"visible":true,"volume":1.0},{"caption_info":null,"cartoon":false,"clip":{"alpha":1.0,"flip":{"horizontal":false,"vertical":false},"rotation":0.0,"scale":{"x":1.0,"y":1.0},"transform":{"x":0.0,"y":0.0}},"common_keyframes":[],"enable_adjust":true,"enable_color_correct_adjust":false,"enable_color_curves":true,"enable_color_match_adjust":false,"enable_color_wheels":true,"enable_lut":true,"enable_smart_color_adjust":false,"extra_material_refs":["851D338A-5B13-4079-BD60-DCA27DDB3B8D","5E1FD27E-2B24-4488-A720-1DC095003A17","76841F62-A6DB-4d89-9605-F1F19B4F388E","2D914518-9359-4327-9616-50437145F129"],"group_id":"","hdr_settings":{"intensity":1.0,"mode":1,"nits":1000},"id":"226E8ABA-D70E-46e7-B16D-A964CF71B9E1","intensifies_audio":false,"is_placeholder":false,"is_tone_modify":false,"keyframe_refs":[],"last_nonzero_volume":1.0,"material_id":"8C58BA7F-812E-46ea-9E30-824A52C21E47","render_index":0,"responsive_layout":{"enable":false,"horizontal_pos_layout":0,"size_layout":0,"target_follow":"","vertical_pos_layout":0},"reverse":true,"source_timerange":{"duration":5000000,"start":0},"speed":1.0,"target_timerange":{"duration":5000000,"start":56000000},"template_id":"","template_scene":"default","track_attribute":0,"track_render_index":0,"uniform_scale":{"on":true,"value":1.0},"visible":true,"volume":1.0},{"caption_info":null,"cartoon":false,"clip":{"alpha":1.0,"flip":{"horizontal":false,"vertical":false},"rotation":0.0,"scale":{"x":1.0,"y":1.0},"transform":{"x":0.0,"y":0.0}},"common_keyframes":[],"enable_adjust":true,"enable_color_correct_adjust":false,"enable_color_curves":true,"enable_color_match_adjust":false,"enable_color_wheels":true,"enable_lut":true,"enable_smart_color_adjust":false,"extra_material_refs":["7996F0A8-9945-4643-9976-AB6201B10680","BB17175E-7601-4ecf-8D05-2380C2F2A4D5","16CB2482-ED1D-4d41-80EF-10B420479B9E","4C92B5D0-7E15-40d1-B041-04D53D873EF7","C0247E02-FB43-4582-94E9-4E4BE3A867D2","F5D24775-6B45-4df2-8D33-34A250919C1B"],"group_id":"","hdr_settings":{"intensity":1.0,"mode":1,"nits":1000},"id":"BC1438E7-9060-46b0-B06D-B3D816A9F55E","intensifies_audio":false,"is_placeholder":false,"is_tone_modify":false,"keyframe_refs":[],"last_nonzero_volume":1.0,"material_id":"9A0157EB-8876-4a08-BCBA-47960EED0C3B","render_index":0,"responsive_layout":{"enable":false,"horizontal_pos_layout":0,"size_layout":0,"target_follow":"","vertical_pos_layout":0},"reverse":false,"source_timerange":{"duration":5000000,"start":0},"speed":1.0,"target_timerange":{"duration":5000000,"start":61000000},"template_id":"","template_scene":"default","track_attribute":0,"track_render_index":0,"uniform_scale":{"on":true,"value":1.0},"visible":true,"volume":1.0},{"caption_info":null,"cartoon":false,"clip":{"alpha":1.0,"flip":{"horizontal":false,"vertical":false},"rotation":0.0,"scale":{"x":1.0,"y":1.0},"transform":{"x":0.0,"y":0.0}},"common_keyframes":[],"enable_adjust":true,"enable_color_correct_adjust":false,"enable_color_curves":true,"enable_color_match_adjust":false,"enable_color_wheels":true,"enable_lut":true,"enable_smart_color_adjust":false,"extra_material_refs":["FA8D82B0-0E12-4013-8652-78F1385C80B0","C298EF1E-DE92-42e4-96AE-59FEC433AB0B","A3208C3A-526D-4fc9-9B4F-2929F0050A7F","A49D2033-B967-43e7-9DB7-A5F25928E0BD","666CD935-7340-48dc-88ED-F42D01F2647F"],"group_id":"","hdr_settings":{"intensity":1.0,"mode":1,"nits":1000},"id":"520E00B9-136B-4a3f-9B48-E035152A3053","intensifies_audio":false,"is_placeholder":false,"is_tone_modify":false,"keyframe_refs":[],"last_nonzero_volume":1.0,"material_id":"7346F3F2-C000-4860-A62E-61CE883A7765","render_index":0,"responsive_layout":{"enable":false,"horizontal_pos_layout":0,"size_layout":0,"target_follow":"","vertical_pos_layout":0},"reverse":false,"source_timerange":{"duration":4433335,"start":566665},"speed":1.0,"target_timerange":{"duration":4433333,"start":66000000},"template_id":"","template_scene":"default","track_attribute":0,"track_render_index":0,"uniform_scale":{"on":true,"value":1.0},"visible":true,"volume":1.0}],"type":"video"}],"update_time":0,"version":360000}